PathFileType	4	(X/Y/Z)	/Users/itak/Documents/Research/Walk-IL/dataset/trc/00300_00010.trc
DataRate	CameraRate	NumFrames	NumMarkers	Units	OrigDataRate	OrigDataStartFrame	OrigNumFrames
100.000000	100.000000	4	54	mm	100.000000	170	454
Frame#	Time	RPSI			LPSI			L3			STRN			T10			C7			CLAV			RBAK			LBAK			LSHO			LUPA			LAEL			LAOL			LWTS			LWPS			LFRA			LIFD			LHPS			LHTS			RSHO			RUPA			RAEL			RAOL			RWTS			RWPS			RFRA			RIFD			RHTS			RHPS			RBHD			LFHD			RFHD			LBHD			LHIP			RHIP			RASI			LASI			LKNE			LTHI			LANK			LTIP			LTOE			LMT1			LMT5			LHEE			RKNE			RTHI			RANK			RTIP			RTOE			RMT1			RMT5			RHEE			*53			
		X1	Y1	Z1	X2	Y2	Z2	X3	Y3	Z3	X4	Y4	Z4	X5	Y5	Z5	X6	Y6	Z6	X7	Y7	Z7	X8	Y8	Z8	X9	Y9	Z9	X10	Y10	Z10	X11	Y11	Z11	X12	Y12	Z12	X13	Y13	Z13	X14	Y14	Z14	X15	Y15	Z15	X16	Y16	Z16	X17	Y17	Z17	X18	Y18	Z18	X19	Y19	Z19	X20	Y20	Z20	X21	Y21	Z21	X22	Y22	Z22	X23	Y23	Z23	X24	Y24	Z24	X25	Y25	Z25	X26	Y26	Z26	X27	Y27	Z27	X28	Y28	Z28	X29	Y29	Z29	X30	Y30	Z30	X31	Y31	Z31	X32	Y32	Z32	X33	Y33	Z33	X34	Y34	Z34	X35	Y35	Z35	X36	Y36	Z36	X37	Y37	Z37	X38	Y38	Z38	X39	Y39	Z39	X40	Y40	Z40	X41	Y41	Z41	X42	Y42	Z42	X43	Y43	Z43	X44	Y44	Z44	X45	Y45	Z45	X46	Y46	Z46	X47	Y47	Z47	X48	Y48	Z48	X49	Y49	Z49	X50	Y50	Z50	X51	Y51	Z51	X52	Y52	Z52	X53	Y53	Z53	X54	Y54	Z54	

171	1.7	-284.9804077148438	988.8067016601562	695.9879760742188	-353.0594482421875	963.20654296875	536.122314453125	-308.3023986816406	1048.073120117188	597.4286499023438	-77.11505889892578	1223.866455078125	496.7401733398438	-327.2020263671875	1163.56591796875	595.7777709960938	-285.3514404296875	1407.321899414062	565.284423828125	-137.3522796630859	1324.761840820312	516.4371948242188	-308.9203796386719	1268.87890625	654.2947387695312	-338.7028198242188	1372.969360351562	471.4745178222656	-270.0322875976562	1380.00439453125	391.9289855957031	-315.0953979492188	1262.531860351562	327.8688659667969	-299.6192321777344	1058.129150390625	305.8889465332031	-341.0779724121094	1041.93115234375	380.4607238769531	-218.7107391357422	829.8508911132812	333.7444152832031	-265.5381164550781	823.9444580078125	278.8731689453125	-288.7102966308594	955.1448974609375	293.0431213378906	-242.3051147460938	645.7916870117188	329.4931030273438	-271.4835205078125	735.6192626953125	278.6894836425781	-212.2364654541016	728.9493408203125	309.8630981445312	-166.5873870849609	1381.346801757812	690.8045654296875	-152.7958221435547	1325.620971679688	756.8493041992188	-163.5015716552734	1063.335083007812	821.7119750976562	-217.8679809570312	1052.5693359375	742.492431640625	-92.6693115234375	828.8261108398438	767.3455810546875	-119.2599411010742	833.272705078125	848.0286865234375	-141.1979675292969	995.3856201171875	832.8176879882812	-99.21711730957031	642.1245727539062	787.193115234375	-70.10375213623047	712.1331176757812	790.2648315429688	-106.3995132446289	721.0443725585938	850.37158203125	-211.435791015625	1559.886108398438	639.5491333007812	-155.7983245849609	1614.71142578125	441.1328125	-98.87055969238281	1612.377197265625	514.46435546875	-301.0999755859375	1553.302368164062	521.7594604492188	-326.5427551269531	905.2645263671875	425.9226989746094	-145.2501220703125	953.1072998046875	751.4913330078125	-70.63294982910156	950.8171997070312	637.1737670898438	-182.5320739746094	921.9169311523438	412.3530578613281	-228.8236541748047	446.2111206054688	421.9208984375	-247.3008728027344	584.44921875	411.6237487792969	-563.4400024414062	216.0917816162109	581.682373046875	-398.2626037597656	317.5535888671875	495.4243774414062	-483.9802856445312	32.50579071044922	648.4419555664062	-508.1197509765625	97.88340759277344	685.1660766601562	-535.5144653320312	93.90774536132812	576.9462890625	-562.5807495117188	262.09326171875	639.7950439453125	-35.8910026550293	489.8428955078125	671.2489624023438	-58.98235702514648	748.2293701171875	717.5800170898438	-92.84191131591797	46.46665191650391	722.0858764648438	-25.1668758392334	362.79833984375	658.8795166015625	15.02724552154541	40.25165557861328	549.6615600585938	-54.10496139526367	40.41239166259766	559.3423461914062	-3.382237434387207	32.50824737548828	666.4136352539062	-164.3163299560547	44.48363876342773	719.847900390625	nan	nan	nan	
172	1.71	-275.4550476074219	989.6008911132812	694.2667236328125	-346.0699768066406	963.5310668945312	535.5282592773438	-299.6172790527344	1048.586303710938	596.6634521484375	-70.07051849365234	1223.7568359375	491.1305236816406	-318.1797485351562	1164.82763671875	595.4569091796875	-275.9523315429688	1408.512939453125	563.4908447265625	-129.4420013427734	1324.85498046875	511.8092956542969	-298.209228515625	1270.325927734375	653.257080078125	-331.1737976074219	1373.917114257812	470.8759460449219	-264.20166015625	1380.448852539062	389.7922973632812	-311.6874084472656	1262.815795898438	327.32275390625	-298.6211547851562	1058.393188476562	305.4010314941406	-338.09228515625	1042.664916992188	381.1204528808594	-219.6741638183594	829.3012084960938	332.2723388671875	-267.3897094726562	823.953857421875	278.1654052734375	-288.9978637695312	955.251953125	292.4462280273438	-246.0386199951172	645.572998046875	328.8424987792969	-274.4887390136719	735.6441650390625	278.2237548828125	-215.0586090087891	728.3427124023438	308.7142639160156	-154.7152099609375	1382.133056640625	686.6968383789062	-139.6541595458984	1326.359252929688	752.5758666992188	-147.4566650390625	1063.948974609375	818.1065673828125	-204.8280487060547	1053.26904296875	740.9068603515625	-77.71485900878906	830.102294921875	759.7667236328125	-101.1533508300781	833.747314453125	841.4752197265625	-124.5020217895508	995.91455078125	827.988525390625	-80.6663818359375	643.2893676757812	778.5421752929688	-52.57431793212891	713.7364501953125	781.0748291015625	-86.71044158935547	721.6614379882812	842.5001831054688	-200.8726196289062	1560.465698242188	636.5042114257812	-148.6282653808594	1615.681762695312	437.27099609375	-90.48143768310547	1613.280639648438	509.6365966796875	-292.5516052246094	1554.025512695312	520.1566772460938	-321.0182495117188	905.7613525390625	424.859375	-135.1377716064453	953.3157958984375	747.3868408203125	-61.88373565673828	950.9324951171875	632.4966430664062	-177.3223114013672	922.7991333007812	409.3320007324219	-212.1976776123047	448.4297180175781	413.9302978515625	-235.0177764892578	585.8880004882812	406.1241149902344	-543.9136352539062	220.4427490234375	580.1172485351562	-379.390625	321.1026000976562	490.5985717773438	-462.8924560546875	34.27066040039062	640.904541015625	-485.347900390625	99.93715667724609	679.4837036132812	-516.8054809570312	98.66519927978516	572.5175170898438	-541.3936157226562	265.4454040527344	639.0538330078125	-31.22924041748047	488.9282836914062	667.8858032226562	-50.50433731079102	748.07470703125	712.5890502929688	-93.10329437255859	46.88337707519531	721.751220703125	-22.31898880004883	361.6837463378906	656.1438598632812	15.05921649932861	40.03635025024414	549.4293823242188	-54.20637130737305	40.04414367675781	558.990966796875	-3.560309886932373	32.84083557128906	666.143798828125	-164.5438079833984	44.75247955322266	719.4278564453125	nan	nan	nan	
173	1.72	-266.0234375	990.3842163085938	692.4361572265625	-339.156982421875	963.9732055664062	534.8781127929688	-291.172119140625	1049.184326171875	595.841552734375	-63.22913360595703	1223.6787109375	485.4448852539062	-309.2629699707031	1166.112548828125	595.0700073242188	-266.6969299316406	1409.720825195312	561.6326904296875	-121.7190933227539	1324.95361328125	507.1058959960938	-287.5906677246094	1271.799560546875	652.14111328125	-323.7413635253906	1374.908203125	470.2901611328125	-258.5779113769531	1380.906616210938	387.6769409179688	-308.5664978027344	1263.167724609375	326.9102172851562	-298.0490417480469	1058.741943359375	305.1456604003906	-335.3370666503906	1043.461059570312	382.0216064453125	-220.6309509277344	829.0455322265625	330.7089538574219	-269.4378356933594	824.1014404296875	277.6268310546875	-289.6526184082031	955.428955078125	292.07275390625	-248.7703399658203	645.6137084960938	327.989990234375	-277.2837524414062	735.7985229492188	277.9316711425781	-217.5366668701172	728.1417846679688	307.3551635742188	-142.9572296142578	1382.90869140625	682.4376831054688	-126.6033325195312	1327.070922851562	748.1077270507812	-131.2416534423828	1064.5556640625	814.230224609375	-191.6137084960938	1053.886840820312	739.2391967773438	-62.74175262451172	831.3892211914062	751.9945678710938	-82.88779449462891	834.2989501953125	834.6222534179688	-107.6815872192383	996.4757690429688	822.8846435546875	-62.23630523681641	644.5200805664062	769.6951293945312	-35.1163215637207	715.3851928710938	771.6246337890625	-66.94906616210938	722.395263671875	834.32275390625	-190.3932952880859	1561.103149414062	633.2848510742188	-141.5307159423828	1616.558349609375	433.2513732910156	-82.18452453613281	1614.124389648438	504.6373291015625	-284.1125793457031	1554.753051757812	518.37255859375	-315.6836853027344	906.5005493164062	423.6752014160156	-125.0781631469727	953.54248046875	743.1148071289062	-53.30702590942383	951.11669921875	627.6039428710938	-172.2914733886719	923.8125610351562	406.1768493652344	-195.6620941162109	451.0342102050781	405.9113464355469	-222.8338470458984	587.6331787109375	400.5029296875	-523.7178344726562	223.3583526611328	578.4168090820312	-360.2247314453125	324.2265319824219	485.6204223632812	-439.1653137207031	36.25545120239258	632.6986694335938	-460.8885498046875	101.0740127563477	673.3075561523438	-495.8190307617188	102.6381530761719	567.4815063476562	-520.1249389648438	267.2440490722656	638.1783447265625	-26.72041511535645	488.0243530273438	664.7639770507812	-42.08644485473633	747.9903564453125	707.471435546875	-93.27685546875	47.19235992431641	721.5056762695312	-19.58912658691406	360.6100463867188	653.6829223632812	15.09477424621582	39.89876937866211	549.2855224609375	-54.27265930175781	39.74385833740234	558.7520141601562	-3.688534498214722	33.10267639160156	665.9299926757812	-164.6903686523438	44.97056579589844	719.0883178710938	nan	nan	nan	
174	1.73	-256.6752624511719	991.1604614257812	690.4951782226562	-332.2985534667969	964.5216064453125	534.1588134765625	-282.9465026855469	1049.881591796875	594.951171875	-56.56746673583984	1223.675170898438	479.6930541992188	-300.4310913085938	1167.413452148438	594.60107421875	-257.5965881347656	1410.936889648438	559.720458984375	-114.1755218505859	1325.096313476562	502.3482055664062	-277.0642700195312	1273.29248046875	650.9556884765625	-316.4021606445312	1375.955078125	469.7181091308594	-253.1567687988281	1381.408935546875	385.6002807617188	-305.6738891601562	1263.64697265625	326.6084289550781	-297.8180541992188	1059.220947265625	305.1182250976562	-332.76416015625	1044.373413085938	383.1265563964844	-221.5472717285156	829.0943603515625	329.0654907226562	-271.6479187011719	824.4034423828125	277.2613830566406	-290.5972290039062	955.722412109375	291.9376831054688	-250.5578002929688	645.8924560546875	326.9446716308594	-279.8838806152344	736.103759765625	277.8235168457031	-219.6520843505859	728.3079223632812	305.7498168945312	-131.3343658447266	1383.688598632812	678.0340576171875	-113.6559829711914	1327.780151367188	743.44287109375	-114.9042892456055	1065.185424804688	810.0572509765625	-178.2225189208984	1054.436279296875	737.44921875	-47.74127960205078	832.7053833007812	744.0333251953125	-64.50028991699219	834.9617919921875	827.45751953125	-90.77799987792969	997.0966186523438	817.4942626953125	-44.00296401977539	645.8265991210938	760.6765747070312	-17.78678512573242	717.0730590820312	761.9391479492188	-47.18309020996094	723.2681884765625	825.8483276367188	-179.9994354248047	1561.803588867188	629.8956909179688	-134.5110931396484	1617.337646484375	429.0745239257812	-73.98618316650391	1614.90380859375	499.4703369140625	-275.7808837890625	1555.486938476562	516.4160766601562	-310.4865112304688	907.4439697265625	422.3881530761719	-115.0979156494141	953.7904663085938	738.7474365234375	-44.88988494873047	951.4007568359375	622.5189208984375	-167.4120788574219	924.9553833007812	402.9103088378906	-179.2582397460938	453.9789123535156	397.8786315917969	-210.7446594238281	589.6678466796875	394.7415161132812	-502.8950805664062	224.7637023925781	576.4718627929688	-340.8619995117188	326.7738037109375	480.4267272949219	-413.2490539550781	38.1658935546875	624.00634765625	-435.0476989746094	101.3325500488281	666.7156372070312	-472.8646240234375	105.6095657348633	561.9168701171875	-498.7478637695312	267.4784545898438	637.0577392578125	-22.41693115234375	487.1409606933594	661.9598999023438	-33.8051643371582	747.9500122070312	702.34619140625	-93.36742401123047	47.40868759155273	721.3351440429688	-16.99418067932129	359.5960693359375	651.546630859375	15.12881278991699	39.8182487487793	549.210693359375	-54.30501556396484	39.50691604614258	558.6096801757812	-3.774480819702148	33.29373550415039	665.7720336914062	-164.7582397460938	45.14431381225586	718.8245849609375	nan	nan	nan	
